<mxfile host="app.diagrams.net" agent="Mozilla/5.0 (Windows NT 10.0; Win64; x64; rv:139.0) Gecko/20100101 Firefox/139.0" version="27.1.1">
  <diagram name="Edit Device Page" id="MQdiiWHo3-ch88olqmzm">
    <mxGraphModel dx="1426" dy="751" grid="1" gridSize="10" guides="1" tooltips="1" connect="1" arrows="1" fold="1" page="1" pageScale="1" pageWidth="1169" pageHeight="827" math="0" shadow="0">
      <root>
        <mxCell id="y1LEz-r6pDeVSTHG4QnH-0" />
        <mxCell id="y1LEz-r6pDeVSTHG4QnH-1" parent="y1LEz-r6pDeVSTHG4QnH-0" />
        <mxCell id="y1LEz-r6pDeVSTHG4QnH-2" value="" style="rounded=0;whiteSpace=wrap;html=1;" parent="y1LEz-r6pDeVSTHG4QnH-1" vertex="1">
          <mxGeometry x="10" y="10" width="1150" height="70" as="geometry" />
        </mxCell>
        <mxCell id="y1LEz-r6pDeVSTHG4QnH-3" value="People Counting Demo" style="text;strokeColor=none;fillColor=none;html=1;fontSize=24;fontStyle=1;verticalAlign=middle;align=center;" parent="y1LEz-r6pDeVSTHG4QnH-1" vertex="1">
          <mxGeometry x="460" y="25" width="250" height="40" as="geometry" />
        </mxCell>
        <mxCell id="y1LEz-r6pDeVSTHG4QnH-4" value="" style="shape=image;html=1;verticalAlign=top;verticalLabelPosition=bottom;labelBackgroundColor=#ffffff;imageAspect=0;aspect=fixed;image=https://cdn4.iconfinder.com/data/icons/evil-icons-user-interface/64/menu-128.png" parent="y1LEz-r6pDeVSTHG4QnH-1" vertex="1">
          <mxGeometry x="20" y="15" width="60" height="60" as="geometry" />
        </mxCell>
        <mxCell id="y1LEz-r6pDeVSTHG4QnH-5" value="" style="rounded=0;whiteSpace=wrap;html=1;" parent="y1LEz-r6pDeVSTHG4QnH-1" vertex="1">
          <mxGeometry x="20" y="100" width="1130" height="660" as="geometry" />
        </mxCell>
        <mxCell id="xS7FwTps731Nq9z_FX8p-1" value="" style="rounded=1;whiteSpace=wrap;html=1;" parent="y1LEz-r6pDeVSTHG4QnH-1" vertex="1">
          <mxGeometry x="43.75" y="390" width="160" height="60" as="geometry" />
        </mxCell>
        <mxCell id="y1LEz-r6pDeVSTHG4QnH-6" value="" style="rounded=0;whiteSpace=wrap;html=1;" parent="y1LEz-r6pDeVSTHG4QnH-1" vertex="1">
          <mxGeometry x="20" y="100" width="1130" height="60" as="geometry" />
        </mxCell>
        <mxCell id="y1LEz-r6pDeVSTHG4QnH-7" value="&lt;div&gt;Edit Device&lt;/div&gt;" style="text;strokeColor=none;fillColor=none;html=1;fontSize=24;fontStyle=1;verticalAlign=middle;align=center;" parent="y1LEz-r6pDeVSTHG4QnH-1" vertex="1">
          <mxGeometry x="535" y="110" width="100" height="40" as="geometry" />
        </mxCell>
        <mxCell id="wqvfcx8l4Xk9gCgY2CFc-0" value="" style="rounded=1;whiteSpace=wrap;html=1;" parent="y1LEz-r6pDeVSTHG4QnH-1" vertex="1">
          <mxGeometry x="40" y="180" width="280" height="85" as="geometry" />
        </mxCell>
        <mxCell id="xS7FwTps731Nq9z_FX8p-0" value="" style="rounded=1;whiteSpace=wrap;html=1;" parent="y1LEz-r6pDeVSTHG4QnH-1" vertex="1">
          <mxGeometry x="43.75" y="290" width="280" height="85" as="geometry" />
        </mxCell>
        <mxCell id="y1LEz-r6pDeVSTHG4QnH-8" value="Name" style="text;strokeColor=none;fillColor=none;html=1;fontSize=24;fontStyle=1;verticalAlign=middle;align=center;" parent="y1LEz-r6pDeVSTHG4QnH-1" vertex="1">
          <mxGeometry x="30" y="180" width="100" height="40" as="geometry" />
        </mxCell>
        <mxCell id="y1LEz-r6pDeVSTHG4QnH-9" value="Location" style="text;strokeColor=none;fillColor=none;html=1;fontSize=24;fontStyle=1;verticalAlign=middle;align=center;" parent="y1LEz-r6pDeVSTHG4QnH-1" vertex="1">
          <mxGeometry x="53.75" y="295" width="100" height="40" as="geometry" />
        </mxCell>
        <mxCell id="y1LEz-r6pDeVSTHG4QnH-10" value="&lt;div&gt;Active&lt;/div&gt;" style="text;strokeColor=none;fillColor=none;html=1;fontSize=24;fontStyle=1;verticalAlign=middle;align=center;" parent="y1LEz-r6pDeVSTHG4QnH-1" vertex="1">
          <mxGeometry x="43.75" y="400" width="100" height="40" as="geometry" />
        </mxCell>
        <mxCell id="y1LEz-r6pDeVSTHG4QnH-11" value="" style="line;strokeWidth=2;html=1;" parent="y1LEz-r6pDeVSTHG4QnH-1" vertex="1">
          <mxGeometry x="50" y="250" width="260" height="10" as="geometry" />
        </mxCell>
        <mxCell id="y1LEz-r6pDeVSTHG4QnH-12" value="" style="line;strokeWidth=2;html=1;" parent="y1LEz-r6pDeVSTHG4QnH-1" vertex="1">
          <mxGeometry x="53.75" y="365" width="260" height="10" as="geometry" />
        </mxCell>
        <mxCell id="y1LEz-r6pDeVSTHG4QnH-13" value="" style="dashed=0;labelPosition=right;align=left;shape=mxgraph.gmdl.checkbox;strokeColor=none;fillColor=#B0B0B0;strokeWidth=2;aspect=fixed;sketch=0;html=1;" parent="y1LEz-r6pDeVSTHG4QnH-1" vertex="1">
          <mxGeometry x="153.75" y="405" width="35" height="35" as="geometry" />
        </mxCell>
        <mxCell id="nxw9LN26r3NoxpaEj7Bx-0" value="American Eagle Sensor 1" style="text;html=1;align=left;verticalAlign=middle;whiteSpace=wrap;rounded=0;" parent="y1LEz-r6pDeVSTHG4QnH-1" vertex="1">
          <mxGeometry x="50" y="220" width="260" height="30" as="geometry" />
        </mxCell>
        <mxCell id="xS7FwTps731Nq9z_FX8p-2" value="" style="rounded=1;whiteSpace=wrap;html=1;" parent="y1LEz-r6pDeVSTHG4QnH-1" vertex="1">
          <mxGeometry x="46.25" y="469" width="260" height="70" as="geometry" />
        </mxCell>
        <mxCell id="nxw9LN26r3NoxpaEj7Bx-2" value="123 Main St" style="text;html=1;align=left;verticalAlign=middle;whiteSpace=wrap;rounded=0;" parent="y1LEz-r6pDeVSTHG4QnH-1" vertex="1">
          <mxGeometry x="53.75" y="335" width="256.25" height="30" as="geometry" />
        </mxCell>
        <mxCell id="mbhKnXTTmXu_jjP6XBZs-0" value="" style="shape=image;html=1;verticalAlign=top;verticalLabelPosition=bottom;labelBackgroundColor=#ffffff;imageAspect=0;aspect=fixed;image=https://cdn1.iconfinder.com/data/icons/systemui/21/button_add-128.png" parent="y1LEz-r6pDeVSTHG4QnH-1" vertex="1">
          <mxGeometry x="36.25" y="460" width="88" height="88" as="geometry" />
        </mxCell>
        <mxCell id="mbhKnXTTmXu_jjP6XBZs-1" value="Update Device" style="text;strokeColor=none;fillColor=none;html=1;fontSize=24;fontStyle=1;verticalAlign=middle;align=center;" parent="y1LEz-r6pDeVSTHG4QnH-1" vertex="1">
          <mxGeometry x="156.25" y="484" width="100" height="40" as="geometry" />
        </mxCell>
      </root>
    </mxGraphModel>
  </diagram>
</mxfile>
